<svg width="24" height="24" viewBox="0 0 24 24" fill="none" xmlns="http://www.w3.org/2000/svg">
<rect width="24" height="24" rx="12" fill="#F3F3F3"/>
<path d="M11.4588 10.3281H9.59233C9.55824 10.0866 9.48864 9.87216 9.38352 9.68466C9.27841 9.49432 9.14347 9.33239 8.97869 9.19886C8.81392 9.06534 8.62358 8.96307 8.40767 8.89205C8.1946 8.82102 7.96307 8.78551 7.71307 8.78551C7.26136 8.78551 6.8679 8.89773 6.53267 9.12216C6.19744 9.34375 5.9375 9.66761 5.75284 10.0938C5.56818 10.517 5.47585 11.0312 5.47585 11.6364C5.47585 12.2585 5.56818 12.7812 5.75284 13.2045C5.94034 13.6278 6.2017 13.9474 6.53693 14.1634C6.87216 14.3793 7.25994 14.4872 7.70028 14.4872C7.94744 14.4872 8.17614 14.4545 8.38636 14.3892C8.59943 14.3239 8.78835 14.2287 8.95312 14.1037C9.1179 13.9759 9.25426 13.821 9.36222 13.6392C9.47301 13.4574 9.54972 13.25 9.59233 13.017L11.4588 13.0256C11.4105 13.4261 11.2898 13.8125 11.0966 14.1847C10.9063 14.554 10.6491 14.8849 10.3253 15.1776C10.0043 15.4673 9.62074 15.6974 9.17472 15.8679C8.73153 16.0355 8.23011 16.1193 7.67045 16.1193C6.89205 16.1193 6.19602 15.9432 5.58239 15.5909C4.97159 15.2386 4.48864 14.7287 4.13352 14.0611C3.78125 13.3935 3.60511 12.5852 3.60511 11.6364C3.60511 10.6847 3.78409 9.875 4.14205 9.20739C4.5 8.53977 4.9858 8.03125 5.59943 7.68182C6.21307 7.32955 6.90341 7.15341 7.67045 7.15341C8.17614 7.15341 8.64489 7.22443 9.0767 7.36648C9.51136 7.50852 9.89631 7.71591 10.2315 7.98864C10.5668 8.25852 10.8395 8.58949 11.0497 8.98153C11.2628 9.37358 11.3991 9.82244 11.4588 10.3281ZM18.5689 10.0938C18.5092 9.88636 18.4254 9.70312 18.3175 9.54403C18.2095 9.3821 18.0774 9.24574 17.9212 9.13494C17.7678 9.02131 17.5916 8.93466 17.3928 8.875C17.1967 8.81534 16.9794 8.78551 16.7408 8.78551C16.2947 8.78551 15.9027 8.89631 15.5646 9.1179C15.2294 9.33949 14.968 9.66193 14.7805 10.0852C14.593 10.5057 14.4993 11.0199 14.4993 11.6278C14.4993 12.2358 14.5916 12.7528 14.7763 13.179C14.9609 13.6051 15.2223 13.9304 15.5604 14.1548C15.8984 14.3764 16.2976 14.4872 16.7578 14.4872C17.1754 14.4872 17.532 14.4134 17.8274 14.2656C18.1257 14.1151 18.353 13.9034 18.5092 13.6307C18.6683 13.358 18.7479 13.0355 18.7479 12.6634L19.1229 12.7188H16.8729V11.3295H20.5249V12.429C20.5249 13.196 20.3629 13.8551 20.0391 14.4062C19.7152 14.9545 19.2692 15.3778 18.701 15.6761C18.1328 15.9716 17.4822 16.1193 16.7493 16.1193C15.9311 16.1193 15.2124 15.9389 14.593 15.5781C13.9737 15.2145 13.4908 14.6989 13.1442 14.0312C12.8004 13.3608 12.6286 12.5653 12.6286 11.6449C12.6286 10.9375 12.7308 10.3068 12.9354 9.75284C13.1428 9.19602 13.4325 8.72443 13.8047 8.33807C14.1768 7.9517 14.6101 7.65767 15.1044 7.45597C15.5987 7.25426 16.1342 7.15341 16.7109 7.15341C17.2053 7.15341 17.6655 7.22585 18.0916 7.37074C18.5178 7.51278 18.8956 7.71449 19.2251 7.97585C19.5575 8.23722 19.8288 8.5483 20.0391 8.90909C20.2493 9.26705 20.3842 9.66193 20.4439 10.0938H18.5689Z" fill="#1C1E1F"/>
</svg>
